<?xml version="1.0" encoding="UTF-8"?>
<svg id="Layer_1" data-name="Layer 1" xmlns="http://www.w3.org/2000/svg" viewBox="0 0 120 30">
  <defs>
    <style>
      .cls-1 {
        fill: #fff;
        stroke-width: 0px;
      }
    </style>
  </defs>
  <g>
    <path class="cls-1" d="m3.04,12.88v13.06h-1.74v-13.06h1.74Z"/>
    <path class="cls-1" d="m10.81,25.16c-.3.27-.65.5-1.05.68-.4.18-.84.27-1.33.27-.31,0-.66-.04-1.06-.13s-.76-.27-1.1-.53c-.34-.26-.63-.62-.86-1.08-.23-.46-.35-1.06-.35-1.8v-5.2h1.65v5.2c0,.37.06.68.17.94.11.26.26.46.45.62.18.16.4.27.63.34.24.07.48.11.73.11.19,0,.41-.04.65-.11.24-.07.47-.19.69-.35.21-.16.4-.37.55-.62.15-.25.22-.55.22-.91v-5.22h1.73v8.57h-1.38l-.36-.77Z"/>
    <path class="cls-1" d="m16.31,25.93h-1.74v-8.57h1.38l.36.73c.21-.25.47-.47.77-.65.3-.18.66-.28,1.09-.28.17,0,.35.02.56.06.21.04.42.11.64.21.22.1.43.24.63.41.2.17.38.4.52.67.2-.37.51-.69.92-.96.41-.27.85-.4,1.31-.4.31,0,.64.05.98.14.35.1.67.27.97.54.3.26.54.63.73,1.09.19.47.29,1.07.29,1.81v5.19h-1.63v-5.2c0-.74-.15-1.25-.46-1.55-.3-.29-.71-.44-1.21-.44-.38,0-.72.16-1,.48s-.43.83-.43,1.52v5.19h-1.63v-5.2c0-.74-.15-1.25-.46-1.55-.3-.29-.71-.44-1.21-.44-.36,0-.67.14-.94.41-.27.27-.43.7-.47,1.29v5.49Z"/>
    <path class="cls-1" d="m35.9,17.36v8.57h-1.47l-.27-.98c-.3.39-.68.69-1.14.89-.46.2-.94.3-1.41.3-.6,0-1.15-.12-1.67-.35s-.97-.55-1.36-.96c-.39-.41-.69-.88-.92-1.43-.23-.55-.34-1.13-.34-1.75s.11-1.2.34-1.75c.23-.55.53-1.03.92-1.43.39-.41.84-.72,1.36-.96.52-.23,1.08-.35,1.67-.35.48,0,.94.09,1.38.28.44.18.83.47,1.18.87l.27-.95h1.47Zm-4.29,7.24c.35,0,.67-.08.98-.23.31-.15.58-.37.8-.63.23-.27.41-.58.54-.94.13-.36.2-.74.2-1.14s-.07-.79-.2-1.14c-.13-.36-.31-.67-.54-.94-.23-.27-.49-.48-.8-.63-.31-.15-.64-.23-.98-.23s-.67.08-.98.23c-.31.16-.58.37-.8.63-.23.27-.41.58-.54.94-.13.36-.2.74-.2,1.14s.07.79.2,1.14c.13.36.31.67.54.94.23.27.49.48.8.63.31.16.64.23.98.23Z"/>
    <path class="cls-1" d="m44.16,25.93h-1.74v-13.06h1.74v8.01l3.36-3.52h2.15l-3.29,3.45,3.54,5.12h-1.97l-2.7-3.93-1.09,1.14v2.79Z"/>
    <path class="cls-1" d="m55.04,26.15c-.6,0-1.15-.12-1.67-.35-.52-.23-.97-.55-1.36-.96-.39-.41-.69-.88-.92-1.43-.23-.55-.34-1.13-.34-1.75s.11-1.2.34-1.75c.23-.55.53-1.03.92-1.43.39-.41.84-.72,1.36-.96.52-.23,1.08-.35,1.67-.35s1.14.12,1.66.35c.52.23.98.55,1.37.96.39.41.69.88.92,1.43.23.55.34,1.13.34,1.75s-.11,1.2-.34,1.75c-.23.55-.53,1.03-.92,1.43-.39.41-.84.72-1.37.96-.52.23-1.08.35-1.66.35Zm0-7.44c-.35,0-.68.08-.99.23-.31.16-.58.36-.82.63s-.42.57-.55.93c-.13.36-.2.74-.2,1.15s.07.79.2,1.15c.13.36.31.67.55.94s.51.48.82.64c.31.16.64.23.99.23s.68-.08.99-.23c.31-.16.58-.37.81-.64s.41-.58.54-.94c.13-.36.2-.74.2-1.15s-.07-.79-.2-1.15c-.13-.36-.31-.67-.54-.93s-.5-.47-.81-.63c-.31-.16-.64-.23-.99-.23Z"/>
    <path class="cls-1" d="m62.55,12.88v13.06h-1.73v-13.06h1.73Z"/>
    <path class="cls-1" d="m66.34,12.88v13.06h-1.73v-13.06h1.73Z"/>
    <path class="cls-1" d="m72.37,26.15c-.62,0-1.2-.12-1.74-.35-.54-.23-1.02-.55-1.42-.96-.41-.41-.72-.88-.96-1.43-.23-.55-.35-1.13-.35-1.75s.11-1.2.33-1.75c.22-.55.52-1.03.89-1.43.38-.41.81-.72,1.31-.96.5-.23,1.04-.35,1.61-.35s1.12.1,1.62.3c.49.2.92.52,1.29.95.36.43.65.97.85,1.64.2.66.3,1.45.3,2.37h-6.37c.08.31.21.6.39.87.18.27.39.5.63.7.24.2.52.35.82.46.3.11.62.16.96.16.45,0,.87-.08,1.26-.25.39-.17.72-.39.99-.66l1.07,1.07c-.42.42-.93.75-1.53,1-.6.25-1.26.38-1.98.38Zm-.32-7.4c-.27,0-.53.05-.78.16-.24.11-.47.26-.68.45-.21.19-.39.42-.54.68-.15.26-.26.55-.33.86h4.53c-.02-.29-.09-.56-.2-.82-.11-.26-.26-.49-.45-.69-.19-.2-.41-.35-.67-.46-.26-.11-.55-.17-.89-.17Z"/>
    <path class="cls-1" d="m79.61,25.93h-1.74v-13.06h1.74v8.01l3.36-3.52h2.15l-3.29,3.45,3.54,5.12h-1.97l-2.7-3.93-1.09,1.14v2.79Z"/>
    <path class="cls-1" d="m89.93,26.2c-.48.04-.91-.03-1.29-.21-.38-.17-.69-.48-.93-.91-.24-.44-.36-1.05-.36-1.83v-4.35h-1.25v-1.18l1.25-.35v-2.29h1.73v2.29h2.33v1.54h-2.33v4.61c0,.29.03.51.1.68.07.17.18.29.33.38.15.08.36.13.61.13s.55-.02.91-.07l.34,1.27c-.49.17-.97.27-1.45.3Z"/>
    <path class="cls-1" d="m93.77,15.5c-.31,0-.57-.11-.79-.33-.21-.22-.32-.49-.32-.8s.11-.57.32-.79c.21-.21.48-.32.79-.32s.57.11.79.32c.21.21.32.48.32.79s-.11.58-.32.8c-.21.22-.48.33-.79.33Zm.89,10.43h-1.75v-8.57h1.73l.02,8.57Z"/>
    <path class="cls-1" d="m101.66,25.93h-2.31l-3.54-8.57h1.88l2.83,6.81,2.83-6.81h1.88l-3.56,8.57Z"/>
  </g>
  <path class="cls-1" d="m113.15,9.57h5.54v1.74h-5.54v5.78h-2.06v-5.78h-5.68v-1.74h5.68V3.79h2.06v5.78Z"/>
</svg>