<svg id="Layer_1" data-name="Layer 1" xmlns="http://www.w3.org/2000/svg" viewBox="0 0 334.7 131.31"><defs><style>.cls-1{fill:#fff;}.cls-2{fill:#00ffb3;}</style></defs><title>logo</title><path id="_Compound_Path_" data-name="&lt;Compound Path&gt;" class="cls-1" d="M39.78,76.09a32.8,32.8,0,0,0,17.79-5,35.7,35.7,0,0,0,12.5-13.27h5.66A39,39,0,0,1,61.4,74.54a38.5,38.5,0,0,1-21.62,6.29,38.29,38.29,0,0,1-15.51-3.19A41.22,41.22,0,0,1,11.5,69,38.76,38.76,0,0,1,3,56.2,40.72,40.72,0,0,1,0,40.51,41.43,41.43,0,0,1,3,24.73,38.56,38.56,0,0,1,11.5,11.86,41.28,41.28,0,0,1,24.27,3.19,39.06,39.06,0,0,1,52.1,2,39.39,39.39,0,0,1,62.86,7.57,43.22,43.22,0,0,1,71.44,16a37.07,37.07,0,0,1,5.75,10.68H71.9A35.58,35.58,0,0,0,59.31,11.13a33.15,33.15,0,0,0-19.53-6A32.72,32.72,0,0,0,26.19,7.95a36.76,36.76,0,0,0-11,7.59A35.5,35.5,0,0,0,4.93,40.6,35.49,35.49,0,0,0,15.15,65.67a36.78,36.78,0,0,0,11,7.59A32.73,32.73,0,0,0,39.78,76.09Z"/><path id="_Compound_Path_2" data-name="&lt;Compound Path&gt;" class="cls-1" d="M139.23,80.84a38.29,38.29,0,0,1-15.51-3.19A41.22,41.22,0,0,1,110.95,69,39.88,39.88,0,0,1,99.27,40.51a40.33,40.33,0,0,1,3.1-15.78,39.73,39.73,0,0,1,8.58-12.86,41.28,41.28,0,0,1,12.77-8.67A38.3,38.3,0,0,1,139.23,0a37.68,37.68,0,0,1,15.42,3.19,41.61,41.61,0,0,1,12.68,8.67,39.79,39.79,0,0,1,8.58,12.86A40.39,40.39,0,0,1,179,40.51,39.87,39.87,0,0,1,167.33,69a41.55,41.55,0,0,1-12.68,8.67A37.66,37.66,0,0,1,139.23,80.84Zm-.09-75.73a32.88,32.88,0,0,0-13.63,2.84,36.86,36.86,0,0,0-11.07,7.59A35.43,35.43,0,0,0,104.2,40.6a35.43,35.43,0,0,0,10.24,25.06,36.88,36.88,0,0,0,11.07,7.59,34,34,0,0,0,27.17,0,36.55,36.55,0,0,0,11.16-7.59A35.46,35.46,0,0,0,174.08,40.6a35.46,35.46,0,0,0-10.25-25.06,36.53,36.53,0,0,0-11.16-7.59A33.07,33.07,0,0,0,139.14,5.11Z"/><polygon id="_Path_" data-name="&lt;Path&gt;" class="cls-1" points="205.84 0 200.91 0 200.91 77.37 205.84 77.37 205.84 24.09 205.84 5.11 225.54 5.11 241.97 5.11 241.97 0 205.84 0"/><path id="_Compound_Path_3" data-name="&lt;Compound Path&gt;" class="cls-1" d="M294.7,80.84a38.28,38.28,0,0,1-15.51-3.19A41.22,41.22,0,0,1,266.42,69a39.87,39.87,0,0,1-11.68-28.47,40.33,40.33,0,0,1,3.1-15.78,39.73,39.73,0,0,1,8.58-12.86,41.28,41.28,0,0,1,12.77-8.67A38.3,38.3,0,0,1,294.7,0a37.68,37.68,0,0,1,15.42,3.19,41.61,41.61,0,0,1,12.68,8.67,39.76,39.76,0,0,1,8.58,12.86,40.39,40.39,0,0,1,3.1,15.78A39.87,39.87,0,0,1,322.8,69a41.54,41.54,0,0,1-12.68,8.67A37.67,37.67,0,0,1,294.7,80.84Zm-.09-75.73A32.89,32.89,0,0,0,281,7.95a36.85,36.85,0,0,0-11.07,7.59A35.43,35.43,0,0,0,259.67,40.6a35.42,35.42,0,0,0,10.24,25.06A36.86,36.86,0,0,0,281,73.26a34,34,0,0,0,27.17,0,36.54,36.54,0,0,0,11.16-7.59A35.45,35.45,0,0,0,329.56,40.6a35.46,35.46,0,0,0-10.25-25.06,36.53,36.53,0,0,0-11.16-7.59A33.07,33.07,0,0,0,294.61,5.11Z"/><g id="_Group_" data-name="&lt;Group&gt;"><path id="_Path_2" data-name="&lt;Path&gt;" class="cls-2" d="M34.05,123.76l41-.38,42-.34,23.69-.16,12.19-.06q6.15,0,12.32.26c8.22.29,16.43.9,24.48,1.71s15.92,1.8,23.51,2.17a104.86,104.86,0,0,0,11.15.06c3.63-.19,7.18-.58,10.61-1.1s6.76-1.2,9.95-2,6.23-1.68,9.31-2.34a75.22,75.22,0,0,1,16.88-1.82,56.65,56.65,0,0,1,13,1.53,42.87,42.87,0,0,1,7.95,2.69,21.34,21.34,0,0,1,2.63,1.4.15.15,0,0,1-.16.26,20.87,20.87,0,0,0-2.67-1.17,45.1,45.1,0,0,0-8-2.14,62.94,62.94,0,0,0-12.74-.85,79.6,79.6,0,0,0-16.34,2.42c-2.91.7-6,1.72-9.22,2.57s-6.61,1.65-10.12,2.28a97,97,0,0,1-22.4,1.32c-7.77-.45-15.65-1.55-23.65-2.48s-16.13-1.69-24.29-2.12c-4.08-.21-8.17-.35-12.23-.42l-12.18-.11L117,124.78l-42-.34-41-.38a.15.15,0,0,1,0-.3Z"/></g></svg>