<?xml version="1.0" encoding="utf-8"?>
<!-- Generator: Adobe Illustrator 19.0.0, SVG Export Plug-In . SVG Version: 6.00 Build 0)  -->
<svg version="1.0" id="Layer_1" xmlns="http://www.w3.org/2000/svg" xmlns:xlink="http://www.w3.org/1999/xlink" x="0px" y="0px"
	 viewBox="0 0 1000 500" style="enable-background:new 0 0 1000 500;" xml:space="preserve">
<style type="text/css">
	.st0{fill:#FFFFFF;}
	.st1{fill:url(#XMLID_10_);}
</style>
<path id="XMLID_4_" class="st0" d="M324.3,269.1c9.4,0,17.8-2.4,25.3-7.1c7.5-4.7,13.5-11,17.8-18.9h8.1
	c-4.5,9.9-11.3,17.8-20.4,23.8c-9.1,6-19.4,9-30.8,9c-7.8,0-15.2-1.5-22.1-4.5c-6.9-3-13-7.1-18.2-12.3c-5.2-5.2-9.2-11.3-12.1-18.2
	c-2.9-6.9-4.3-14.4-4.3-22.3c0-8,1.4-15.5,4.3-22.5c2.9-7,6.9-13.1,12.1-18.3c5.2-5.2,11.3-9.3,18.2-12.3c6.9-3,14.3-4.5,22.1-4.5
	c6.1,0,11.9,1,17.5,2.9c5.6,1.9,10.7,4.5,15.3,7.9c4.6,3.4,8.7,7.4,12.2,12c3.5,4.6,6.3,9.7,8.2,15.2H370c-3.8-9-9.8-16.4-17.9-22.1
	c-8.1-5.7-17.4-8.6-27.8-8.6c-6.9,0-13.4,1.3-19.4,4c-6,2.7-11.2,6.3-15.7,10.8c-4.5,4.5-8.1,9.9-10.7,16
	c-2.6,6.2-3.9,12.7-3.9,19.7c0,6.9,1.3,13.5,3.9,19.7c2.6,6.2,6.1,11.5,10.7,16c4.5,4.5,9.7,8.1,15.7,10.8
	C310.9,267.7,317.3,269.1,324.3,269.1z"/>
<path id="XMLID_6_" class="st0" d="M465.9,275.8c-7.8,0-15.2-1.5-22.1-4.5c-6.9-3-13-7.1-18.2-12.3c-5.2-5.2-9.3-11.3-12.2-18.2
	c-2.9-6.9-4.4-14.4-4.4-22.3c0-8,1.5-15.5,4.4-22.5c2.9-7,7-13.1,12.2-18.3c5.2-5.2,11.3-9.3,18.2-12.3c6.9-3,14.3-4.5,22.1-4.5
	s15.1,1.5,22,4.5c6.8,3,12.9,7.1,18.1,12.3c5.2,5.2,9.3,11.3,12.2,18.3c2.9,7,4.4,14.5,4.4,22.5c0,8-1.5,15.4-4.4,22.3
	c-2.9,6.9-7,13-12.2,18.2c-5.2,5.2-11.2,9.3-18.1,12.3C481,274.3,473.7,275.8,465.9,275.8z M465.8,168c-7,0-13.4,1.3-19.4,4
	c-6,2.7-11.2,6.3-15.8,10.8c-4.5,4.5-8.1,9.9-10.7,16c-2.6,6.2-3.9,12.7-3.9,19.7c0,6.9,1.3,13.5,3.9,19.7c2.6,6.2,6.2,11.5,10.7,16
	c4.5,4.5,9.8,8.1,15.8,10.8c6,2.7,12.5,4,19.4,4c6.8,0,13.2-1.3,19.3-4c6.1-2.7,11.4-6.3,15.9-10.8c4.5-4.5,8.1-9.9,10.7-16
	c2.6-6.2,3.9-12.7,3.9-19.7c0-6.9-1.3-13.5-3.9-19.7c-2.6-6.2-6.2-11.5-10.7-16c-4.5-4.5-9.8-8.1-15.9-10.8
	C479,169.3,472.5,168,465.8,168z"/>
<polygon id="XMLID_9_" class="st0" points="560.7,160.7 553.7,160.7 553.7,270.9 560.7,270.9 560.7,195 560.7,168 588.8,168 
	612.2,168 612.2,160.7 "/>
<path id="XMLID_11_" class="st0" d="M687.3,275.8c-7.8,0-15.2-1.5-22.1-4.5c-6.9-3-13-7.1-18.2-12.3c-5.2-5.2-9.3-11.3-12.2-18.2
	c-2.9-6.9-4.4-14.4-4.4-22.3c0-8,1.5-15.5,4.4-22.5c2.9-7,7-13.1,12.2-18.3c5.2-5.2,11.3-9.3,18.2-12.3c6.9-3,14.3-4.5,22.1-4.5
	c7.8,0,15.1,1.5,22,4.5c6.8,3,12.9,7.1,18.1,12.3c5.2,5.2,9.3,11.3,12.2,18.3c2.9,7,4.4,14.5,4.4,22.5c0,8-1.5,15.4-4.4,22.3
	c-2.9,6.9-7,13-12.2,18.2c-5.2,5.2-11.2,9.3-18.1,12.3C702.4,274.3,695.1,275.8,687.3,275.8z M687.2,168c-7,0-13.4,1.3-19.4,4
	c-6,2.7-11.2,6.3-15.8,10.8c-4.5,4.5-8.1,9.9-10.7,16c-2.6,6.2-3.9,12.7-3.9,19.7c0,6.9,1.3,13.5,3.9,19.7c2.6,6.2,6.2,11.5,10.7,16
	c4.5,4.5,9.8,8.1,15.8,10.8c6,2.7,12.5,4,19.4,4c6.8,0,13.2-1.3,19.3-4c6.1-2.7,11.4-6.3,15.9-10.8c4.5-4.5,8.1-9.9,10.7-16
	c2.6-6.2,3.9-12.7,3.9-19.7c0-6.9-1.3-13.5-3.9-19.7c-2.6-6.2-6.2-11.5-10.7-16c-4.5-4.5-9.8-8.1-15.9-10.8
	C700.4,169.3,693.9,168,687.2,168z"/>
<g id="XMLID_1_">
	<linearGradient id="XMLID_10_" gradientUnits="userSpaceOnUse" x1="5.4341" y1="355.9636" x2="994.5659" y2="355.9636">
		<stop  offset="0" style="stop-color:#0F33FF;stop-opacity:0"/>
		<stop  offset="0.2266" style="stop-color:#1142FF"/>
		<stop  offset="0.4187" style="stop-color:#1769FF"/>
		<stop  offset="0.7389" style="stop-color:#01FAB6;stop-opacity:0.9823"/>
		<stop  offset="1" style="stop-color:#00FFB3;stop-opacity:0"/>
	</linearGradient>
	<path id="XMLID_22_" class="st1" d="M9.4,350.8c0,0,62.1-0.3,155.3-0.8c23.3-0.1,48.5-0.2,75.2-0.4c26.7-0.2,54.8-0.1,83.9-0.4
		c29.1-0.2,59.2-0.5,89.8-0.7c7.6-0.1,15.3-0.1,23-0.2c3.8,0,7.7,0,11.6,0l5.8,0l5.8,0.1c3.9,0.1,7.8,0.1,11.7,0.2
		c3.9,0.1,7.8,0.3,11.7,0.4l5.8,0.2l5.8,0.3l11.7,0.6c15.6,1,31.1,2.3,46.5,4c15.4,1.7,30.8,3.7,45.9,5.9
		c30.3,4.3,59.9,9.8,88.6,11.5c14.3,1,28.5,0.9,42.2-0.3c13.7-1.2,27.1-3.5,39.9-6.6c3.2-0.7,6.4-1.6,9.5-2.4
		c1.6-0.4,3.1-0.8,4.7-1.3c1.6-0.4,3.1-0.9,4.6-1.4c3.1-1,6.1-1.8,9.1-2.8c3-1,6-2,8.9-3.1l2.2-0.8l2.2-0.8c1.4-0.5,2.9-1.1,4.3-1.6
		c2.9-1.1,5.8-2.2,8.6-3.2c2.8-1,5.6-2.1,8.5-3.1c2.9-0.9,5.7-1.9,8.5-2.8c22.6-6.9,44.2-9.9,63.4-9.7c9.6,0.1,18.5,1,26.7,2.3
		c8.2,1.4,15.5,3.3,22.1,5.5c13,4.3,22.6,9.4,28.8,13.3c3.1,2,5.4,3.6,6.9,4.8c1.5,1.2,2.2,1.8,2.2,1.8c0.2,0.1,0.2,0.4,0,0.6
		c-0.1,0.2-0.4,0.2-0.5,0c0,0-0.7-0.6-2.3-1.7c-1.5-1.1-3.9-2.6-7-4.3c-6.3-3.5-15.9-8.2-28.9-11.9c-6.5-1.8-13.8-3.4-21.8-4.4
		c-8-1.1-16.8-1.6-26.1-1.4c-9.3,0.2-19.3,1.2-29.6,3c-10.3,1.8-21,4.6-31.9,8.1c-2.7,0.9-5.4,1.9-8.2,2.9c-2.8,1-5.6,2.2-8.4,3.3
		c-2.8,1.1-5.6,2.2-8.5,3.4c-1.4,0.6-2.9,1.2-4.3,1.7l-2.2,0.9l-2.2,0.8c-3,1.1-6,2.2-9,3.2c-3,1.1-6.1,2-9.3,3
		c-1.6,0.5-3.1,1-4.7,1.5c-1.6,0.5-3.2,0.9-4.8,1.4c-3.2,0.9-6.4,1.9-9.7,2.6c-6.5,1.7-13.3,3.1-20.1,4.3c-1.7,0.3-3.4,0.5-5.2,0.8
		c-1.7,0.3-3.5,0.6-5.2,0.8c-1.7,0.2-3.5,0.4-5.3,0.6c-1.8,0.2-3.5,0.4-5.3,0.6c-14.2,1.3-28.8,1.4-43.5,0.5
		c-14.7-1-29.5-2.9-44.4-5.1c-14.9-2.2-29.8-4.8-44.9-7.2c-15.1-2.4-30.3-4.6-45.6-6.5c-15.3-1.8-30.7-3.3-46.1-4.4l-11.6-0.7
		l-5.8-0.4l-5.8-0.3c-3.9-0.2-7.7-0.3-11.6-0.5c-3.9-0.1-7.7-0.2-11.6-0.3l-5.8-0.2l-5.8-0.1c-3.9,0-7.7-0.1-11.6-0.1
		c-7.7,0-15.4,0-23-0.1c-30.6-0.1-60.7-0.1-89.8-0.2c-29.1,0-57.3-0.2-84-0.4c-26.7-0.2-51.9-0.4-75.2-0.6
		C71.5,352,9.4,351.6,9.4,351.6c-0.2,0-0.4-0.2-0.4-0.4C9,350.9,9.2,350.8,9.4,350.8z"/>
</g>
</svg>
