<?xml version="1.0" encoding="UTF-8"?>
<svg id="Layer_1" data-name="Layer 1" xmlns="http://www.w3.org/2000/svg" viewBox="0 0 1000 500">
  <defs>
    <style>
      .cls-1 {
        stroke-width: 0px;
      }
    </style>
  </defs>
  <g>
    <path class="cls-1" d="m449.44,288.61v-104.54h15.48v90.23h48.36v14.3h-63.84Z"/>
    <path class="cls-1" d="m601.45,251.6c0,5.31-1.01,10.3-3.02,14.97-2.02,4.67-4.74,8.75-8.18,12.24-3.44,3.49-7.47,6.24-12.09,8.26-4.62,2.01-9.58,3.02-14.89,3.02s-10.27-1.01-14.89-3.02c-4.62-2.01-8.65-4.77-12.09-8.26-3.44-3.49-6.17-7.57-8.18-12.24-2.02-4.67-3.02-9.66-3.02-14.97v-67.53h15.48v67.53c0,3.15.59,6.14,1.76,8.99,1.17,2.85,2.79,5.38,4.85,7.59,2.06,2.21,4.48,3.96,7.28,5.23,2.79,1.28,5.76,1.92,8.89,1.92s6.07-.64,8.82-1.92c2.74-1.28,5.14-3.02,7.2-5.23,2.06-2.21,3.67-4.74,4.85-7.59,1.17-2.85,1.76-5.85,1.76-8.99v-67.53h15.48v67.53Z"/>
    <path class="cls-1" d="m707.16,184.07h15.63v104.54h-15.48v-80.21l-30.52,42.02h-11.94l-30.67-42.02v80.21h-15.48v-104.54h15.48l36.64,50.28,36.34-50.28Z"/>
    <path class="cls-1" d="m749.92,288.61h-16.81l43.5-104.54h16.96l43.5,104.54h-16.66l-13.71-32.73h-43.2l-13.57,32.73Zm19.46-47.03h31.4l-15.63-37.74-15.78,37.74Z"/>
    <path class="cls-1" d="m95.29,359.64l50.28,56.17h-20.79l-39.66-46-16.51,16.51v29.34h-15.48v-104.54h15.48v56.17l11.5-12.24,43.5-43.94h20.2l-48.51,48.51Z"/>
    <path class="cls-1" d="m204.84,309.66c7.08,0,13.76,1.43,20.05,4.28,6.29,2.85,11.77,6.71,16.44,11.57,4.67,4.87,8.38,10.57,11.13,17.1,2.75,6.54,4.13,13.44,4.13,20.71s-1.38,14.3-4.13,20.79c-2.75,6.49-6.49,12.16-11.21,17.03-4.72,4.87-10.22,8.72-16.51,11.57-6.29,2.85-12.97,4.28-20.05,4.28s-13.76-1.42-20.05-4.28c-6.29-2.85-11.77-6.71-16.44-11.57-4.67-4.87-8.36-10.54-11.06-17.03-2.7-6.49-4.05-13.42-4.05-20.79s1.35-14.18,4.05-20.71c2.7-6.54,6.41-12.24,11.13-17.1,4.72-4.87,10.22-8.72,16.51-11.57,6.29-2.85,12.97-4.28,20.05-4.28Zm-.07,92.74c5.02,0,9.73-1.01,14.11-3.02,4.38-2.01,8.2-4.79,11.45-8.33,3.25-3.54,5.81-7.69,7.68-12.46,1.87-4.77,2.81-9.85,2.81-15.26s-.94-10.47-2.81-15.19c-1.87-4.72-4.43-8.85-7.68-12.39-3.25-3.54-7.07-6.31-11.45-8.33-4.38-2.01-9.09-3.02-14.11-3.02s-9.73,1.01-14.11,3.02c-4.38,2.02-8.2,4.79-11.45,8.33-3.25,3.54-5.83,7.67-7.76,12.39-1.92,4.72-2.88,9.78-2.88,15.19s.96,10.49,2.88,15.26c1.92,4.77,4.51,8.92,7.76,12.46,3.25,3.54,7.07,6.32,11.45,8.33,4.38,2.02,9.09,3.02,14.11,3.02Z"/>
    <path class="cls-1" d="m269.86,415.67v-104.54h15.48v90.23h48.36v14.3h-63.84Z"/>
    <path class="cls-1" d="m345.5,415.67v-104.54h15.48v90.23h48.36v14.3h-63.84Z"/>
    <path class="cls-1" d="m484.68,311.13v13.86h-48.51v28.46h43.2v14.3h-43.2v33.62h48.51v14.3h-63.99v-104.54h63.99Z"/>
    <path class="cls-1" d="m543.8,359.64l50.28,56.17h-20.79l-39.66-46-16.51,16.51v29.34h-15.48v-104.54h15.48v56.17l11.5-12.24,43.5-43.94h20.2l-48.51,48.51Z"/>
    <path class="cls-1" d="m625.63,324.99h-28.31v-13.86h72.25v13.86h-28.46v90.68h-15.48v-90.68Z"/>
    <path class="cls-1" d="m710.26,323.81v79.18h7.52v12.68h-30.82v-12.68h7.81v-79.18h-7.81v-12.68h30.82v12.68h-7.52Z"/>
    <path class="cls-1" d="m776.9,415.67l-43.35-104.54h16.66l35.24,84.78,35.24-84.78h16.66l-43.35,104.54h-17.1Z"/>
  </g>
  <path class="cls-1" d="m901.17,112.74h45.7v14.36h-45.7v47.66h-16.98v-47.66h-46.79v-14.36h46.79v-47.66h16.98v47.66Z"/>
</svg>