<?xml version="1.0" encoding="UTF-8"?>
<svg id="Layer_1" data-name="Layer 1" xmlns="http://www.w3.org/2000/svg" viewBox="0 0 1000 250">
  <defs>
    <style>
      .cls-1 {
        stroke-width: 0px;
      }
    </style>
  </defs>
  <g>
    <path class="cls-1" d="m35.26,97.97v107.63h-14.3v-107.63h14.3Z"/>
    <path class="cls-1" d="m99.24,199.27c-2.46,2.26-5.33,4.13-8.62,5.6-3.29,1.47-6.96,2.21-10.98,2.21-2.56,0-5.46-.37-8.7-1.11s-6.27-2.19-9.07-4.35c-2.8-2.16-5.16-5.14-7.08-8.92-1.92-3.78-2.88-8.72-2.88-14.82v-42.91h13.56v42.91c0,3.05.47,5.63,1.4,7.74.93,2.11,2.16,3.81,3.69,5.09,1.52,1.28,3.27,2.21,5.23,2.8,1.96.59,3.98.88,6.04.88,1.57,0,3.37-.29,5.38-.88,2.01-.59,3.91-1.55,5.68-2.88,1.77-1.33,3.27-3.02,4.5-5.09,1.23-2.06,1.84-4.57,1.84-7.52v-43.05h14.3v70.62h-11.35l-2.95-6.34Z"/>
    <path class="cls-1" d="m144.65,205.61h-14.3v-70.62h11.35l2.95,6.04c1.77-2.06,3.88-3.86,6.34-5.38,2.46-1.52,5.46-2.29,8.99-2.29,1.38,0,2.92.17,4.64.52,1.72.35,3.49.94,5.31,1.77,1.82.84,3.56,1.97,5.23,3.39,1.67,1.43,3.1,3.27,4.28,5.53,1.67-3.05,4.2-5.68,7.59-7.89,3.39-2.21,7-3.32,10.84-3.32,2.55,0,5.26.39,8.11,1.18,2.85.79,5.5,2.26,7.96,4.42,2.46,2.16,4.47,5.16,6.04,8.99,1.57,3.83,2.36,8.8,2.36,14.89v42.76h-13.42v-42.91c0-6.09-1.25-10.34-3.76-12.75-2.51-2.41-5.82-3.61-9.95-3.61-3.15,0-5.9,1.33-8.26,3.98s-3.54,6.83-3.54,12.53v42.76h-13.42v-42.91c0-6.09-1.25-10.34-3.76-12.75-2.51-2.41-5.82-3.61-9.95-3.61-2.95,0-5.53,1.13-7.74,3.39-2.21,2.26-3.52,5.8-3.91,10.62v45.26Z"/>
    <path class="cls-1" d="m306.1,134.98v70.62h-12.09l-2.21-8.11c-2.46,3.24-5.6,5.7-9.44,7.37-3.83,1.67-7.72,2.51-11.65,2.51-4.92,0-9.51-.96-13.79-2.88s-8.01-4.55-11.21-7.89c-3.2-3.34-5.73-7.27-7.59-11.8-1.87-4.52-2.8-9.34-2.8-14.45s.93-9.93,2.8-14.45c1.87-4.52,4.4-8.45,7.59-11.79,3.19-3.34,6.93-5.97,11.21-7.89,4.28-1.92,8.87-2.88,13.79-2.88,3.93,0,7.72.76,11.35,2.29,3.64,1.52,6.88,3.91,9.73,7.15l2.21-7.81h12.09Zm-35.39,59.71c2.85,0,5.55-.64,8.11-1.92,2.55-1.28,4.77-3.02,6.63-5.23,1.87-2.21,3.34-4.79,4.42-7.74,1.08-2.95,1.62-6.09,1.62-9.44s-.54-6.49-1.62-9.44c-1.08-2.95-2.56-5.53-4.42-7.74-1.87-2.21-4.08-3.96-6.63-5.23-2.56-1.28-5.26-1.92-8.11-1.92s-5.55.64-8.11,1.92c-2.56,1.28-4.77,3.02-6.63,5.23-1.87,2.21-3.34,4.79-4.42,7.74-1.08,2.95-1.62,6.1-1.62,9.44s.54,6.49,1.62,9.44c1.08,2.95,2.55,5.53,4.42,7.74,1.87,2.21,4.08,3.96,6.63,5.23,2.55,1.28,5.26,1.92,8.11,1.92Z"/>
    <path class="cls-1" d="m374.21,205.61h-14.3v-107.63h14.3v66.05l27.72-29.05h17.69l-27.13,28.46,29.19,42.17h-16.22l-22.26-32.44-8.99,9.44v23Z"/>
    <path class="cls-1" d="m463.86,207.38c-4.92,0-9.51-.96-13.79-2.88-4.28-1.92-8.01-4.55-11.21-7.89-3.2-3.34-5.73-7.27-7.59-11.8-1.87-4.52-2.8-9.34-2.8-14.45s.93-9.93,2.8-14.45c1.87-4.52,4.4-8.45,7.59-11.79,3.19-3.34,6.93-5.97,11.21-7.89,4.28-1.92,8.87-2.88,13.79-2.88s9.39.96,13.71,2.88c4.32,1.92,8.08,4.55,11.28,7.89,3.19,3.34,5.72,7.28,7.59,11.79,1.87,4.52,2.8,9.34,2.8,14.45s-.94,9.93-2.8,14.45c-1.87,4.52-4.4,8.46-7.59,11.8-3.2,3.34-6.96,5.97-11.28,7.89-4.33,1.92-8.9,2.88-13.71,2.88Zm-.07-61.33c-2.86,0-5.57.64-8.14,1.92-2.57,1.28-4.81,3.01-6.73,5.18s-3.43,4.73-4.51,7.69c-1.08,2.96-1.63,6.11-1.63,9.46s.54,6.51,1.63,9.47c1.09,2.96,2.59,5.54,4.51,7.76s4.17,3.97,6.73,5.25c2.56,1.28,5.28,1.92,8.14,1.92s5.57-.64,8.14-1.92c2.56-1.28,4.78-3.03,6.66-5.25s3.35-4.81,4.44-7.76c1.08-2.96,1.63-6.11,1.63-9.47s-.54-6.51-1.63-9.46c-1.09-2.96-2.56-5.52-4.44-7.69s-4.09-3.9-6.66-5.18c-2.56-1.28-5.28-1.92-8.14-1.92Z"/>
    <path class="cls-1" d="m525.78,97.97v107.63h-14.3v-107.63h14.3Z"/>
    <path class="cls-1" d="m557.04,97.97v107.63h-14.3v-107.63h14.3Z"/>
    <path class="cls-1" d="m606.72,207.38c-5.11,0-9.9-.96-14.38-2.88-4.47-1.92-8.38-4.55-11.72-7.89-3.34-3.34-5.97-7.27-7.89-11.8-1.92-4.52-2.88-9.34-2.88-14.45s.91-9.93,2.73-14.45c1.82-4.52,4.28-8.45,7.37-11.79,3.1-3.34,6.71-5.97,10.84-7.89,4.13-1.92,8.55-2.88,13.27-2.88s9.26.84,13.34,2.51c4.08,1.67,7.62,4.28,10.62,7.81,3,3.54,5.33,8.04,7,13.49,1.67,5.46,2.51,11.97,2.51,19.54h-52.49c.69,2.56,1.77,4.94,3.24,7.15,1.47,2.21,3.22,4.13,5.23,5.75,2.01,1.62,4.28,2.88,6.78,3.76,2.51.88,5.13,1.33,7.89,1.33,3.73,0,7.2-.69,10.39-2.06,3.19-1.38,5.92-3.19,8.18-5.46l8.85,8.85c-3.44,3.44-7.64,6.19-12.61,8.26-4.96,2.06-10.39,3.1-16.29,3.1Zm-2.65-61.04c-2.26,0-4.4.44-6.41,1.33-2.02.88-3.88,2.12-5.6,3.69-1.72,1.57-3.2,3.44-4.42,5.6-1.23,2.16-2.14,4.52-2.73,7.08h37.3c-.2-2.36-.74-4.62-1.62-6.78-.88-2.16-2.11-4.05-3.69-5.68-1.57-1.62-3.42-2.9-5.53-3.83-2.12-.93-4.55-1.4-7.3-1.4Z"/>
    <path class="cls-1" d="m666.44,205.61h-14.3v-107.63h14.3v66.05l27.72-29.05h17.69l-27.13,28.46,29.19,42.17h-16.22l-22.26-32.44-8.99,9.44v23Z"/>
    <path class="cls-1" d="m751.51,207.82c-3.93.29-7.47-.27-10.62-1.7-3.15-1.42-5.7-3.93-7.67-7.52-1.97-3.59-2.95-8.63-2.95-15.11v-35.83h-10.32v-9.77l10.32-2.91v-18.87h14.3v18.87h19.17v12.68h-19.17v38.04c0,2.36.27,4.23.81,5.6.54,1.38,1.45,2.41,2.73,3.1,1.28.69,2.95,1.03,5.01,1.03s4.57-.2,7.52-.59l2.8,10.47c-4.03,1.38-8.01,2.21-11.94,2.51Z"/>
    <path class="cls-1" d="m783.21,119.65c-2.56,0-4.72-.91-6.49-2.73-1.77-1.82-2.65-4-2.65-6.56s.88-4.72,2.65-6.49c1.77-1.77,3.93-2.65,6.49-2.65s4.72.88,6.49,2.65c1.77,1.77,2.65,3.93,2.65,6.49s-.88,4.74-2.65,6.56c-1.77,1.82-3.93,2.73-6.49,2.73Zm7.37,85.96h-14.45v-70.62h14.3l.15,70.62Z"/>
    <path class="cls-1" d="m848.23,205.61h-19.02l-29.19-70.62h15.48l23.29,56.17,23.29-56.17h15.48l-29.34,70.62Z"/>
  </g>
  <path class="cls-1" d="m942.91,70.74h45.7v14.36h-45.7v47.66h-16.97v-47.66h-46.79v-14.36h46.79V23.08h16.97v47.66Z"/>
</svg>